<svg width="106" height="43" viewBox="0 0 106 43" fill="none" xmlns="http://www.w3.org/2000/svg">
<path d="M22.1743 25.0789L18.1443 25.7934L21.9111 26.1037L19.6955 34.7685L11.6136 36.2006L15.6185 20.5694L17.6461 20.2091L0.623474 18.6704L24.0577 14.5182C24.5341 14.4335 24.9634 14.7156 25.0104 15.2076L25.9881 23.4243L28.4669 13.7347L36.5489 12.3026L30.2783 36.7961L23.4122 35.4391L22.1712 25.0758L22.1743 25.0789Z" fill="white"/>
<path d="M54.3552 28.6264L34.1643 32.202L39.3852 11.7793L59.576 8.2037L58.0029 14.3459L41.864 17.2039L45.6308 17.5141L45.3675 18.5388L55.452 16.7526L54.4272 20.8202L44.3209 22.6096L43.7975 24.6559L55.9064 22.5093L54.3583 28.6233L54.3552 28.6264Z" fill="white"/>
<path d="M81.2646 4.3615C81.813 4.26435 82.2423 4.64041 82.2423 5.16688C82.2423 5.26089 82.2173 5.33924 82.1953 5.43638L77.4978 23.8128C77.3788 24.264 76.9964 24.6181 76.5671 24.6933L58.4007 27.9117C57.8523 28.0089 57.423 27.6328 57.423 27.1314C57.423 27.0374 57.423 26.9653 57.448 26.865L62.1455 8.48866C62.2646 8.0374 62.6469 7.66135 63.0982 7.57987L81.2646 4.3615ZM72.8975 11.707L64.8155 13.1392L68.6074 13.4431L66.771 20.585L70.801 19.8705L72.8975 11.7039V11.707Z" fill="white"/>
<path d="M99.8103 20.5756L91.7283 22.0077L90.6566 12.926L86.6266 13.6405L90.3933 13.9508L88.1746 22.6376L80.0927 24.0697L85.3135 3.64697L92.5118 2.37154C93.0132 2.28379 93.4425 2.58776 93.4895 3.07976L94.4672 11.2965L96.946 1.58496L105.028 0.152832L99.8072 20.5756H99.8103Z" fill="white"/>
<path d="M59.8483 30.0836L71.1361 28.0843C71.4495 28.0279 71.7033 28.2535 71.7033 28.5669C71.7033 28.6233 71.7033 28.6672 71.6876 28.7267L68.8861 39.6824C68.814 39.9519 68.5884 40.1618 68.3189 40.2088L56.7333 42.2614L59.8452 30.0836H59.8483ZM61.3274 33.3177L63.5743 33.5026L62.4807 37.7614L64.8968 37.332L66.1346 32.4653L61.3306 33.3177H61.3274Z" fill="#CF71E4"/>
<path d="M82.4647 37.7016L70.4247 39.8357L73.5366 27.6579L85.5765 25.5238L84.6395 29.1872L75.0157 30.892L77.2626 31.0769L77.1059 31.6879L83.1196 30.6225L82.5085 33.048L76.4823 34.1166L76.1689 35.3388L83.3891 34.0602L82.4647 37.7048V37.7016Z" fill="#CF71E4"/>
<path d="M94.489 23.9474L99.3087 23.095L97.8578 28.7514L95.4542 29.1776L96.4194 29.2622L97.4285 30.406L96.1906 35.2728L91.3709 36.1251L92.3079 32.4775L91.4116 31.4715L89.8917 32.9068L88.9673 36.5513L84.1476 37.4037L85.3979 32.5339L86.9053 31.1017L86.009 30.0958L87.2594 25.2259L92.0791 24.3735L91.1421 28.0369L92.0384 29.0303L93.5457 27.6138L94.4827 23.9505L94.489 23.9474Z" fill="#CF71E4"/>
</svg>
